<?xml version="1.0" encoding="utf-8"?>
<!-- Generator: Adobe Illustrator 25.4.1, SVG Export Plug-In . SVG Version: 6.00 Build 0)  -->
<svg version="1.1" id="_x3C_Layer_x3E_" xmlns="http://www.w3.org/2000/svg" xmlns:xlink="http://www.w3.org/1999/xlink" x="0px"
	 y="0px" viewBox="0 0 2760 1840" style="enable-background:new 0 0 2760 1840;" xml:space="preserve">
<style type="text/css">
	.st0{fill:#EBF3FA;}
	.st1{opacity:0.5;}
	.st2{fill:#AEC3FF;}
	.st3{opacity:0.4;}
	.st4{fill:#8C9DF4;}
	.st5{fill:#505ABA;}
	.st6{fill:#FFFFFF;}
	.st7{fill:#F99746;}
	.st8{fill:#BDD1F9;}
	.st9{fill:#D2E2F9;}
	.st10{fill:#35488B;}
	.st11{fill:#2C3A64;}
	.st12{fill:#DDE7FE;}
	.st13{fill:#6C7AFF;}
	.st14{fill:#8FADEF;}
	.st15{fill:#F77D48;}
	.st16{fill:#FF8C64;}
	.st17{fill:#798EE8;}
	.st18{fill:#849DEF;}
	.st19{fill:#FAFAFA;}
	.st20{fill:#FFB27D;}
	.st21{fill:#2F539B;}
	.st22{fill:#233862;}
	.st23{fill:#6385DB;}
	.st24{fill:#739AF0;}
	.st25{fill:#ED985F;}
	.st26{fill:#ED7D2B;}
	.st27{fill:#ED975D;}
	.st28{fill:#113C68;}
	.st29{fill:#2A4E96;}
	.st30{fill:#15447C;}
	.st31{fill:#FCA56B;}
	.st32{fill:#163560;}
	.st33{fill:#1F4D84;}
	.st34{fill:#B3CFF9;}
</style>
<g>
	<g>
		<path class="st0" d="M2513,1605.7c-133.6,0-2139.9,0.5-2141-3l-0.2-0.4c0,0-0.2-0.4-0.2-0.6c-0.7-1.7-386.3-157.1-132.2-504.5
			C372.7,915.1,134.9,636.3,418,390.3c443.7-385.4,867.1,89.3,1046.5,0c150.9-75.1,393.3-182.6,639.3-86.2
			c67.6,26.5,214,159.5,92.4,383c-60.8,111.7,208.8,124.7,307.4,243.4C2718.5,1189.1,2593,1605.7,2513,1605.7z"/>
	</g>
	<g class="st1">
		<g class="st1">
			<path class="st2" d="M1764.3,802.3c0,0-25.8-204.1,46.3-347.7c9.6-19.1,37.9-15.5,42.6,5.3c0.1,0.3,0.2,0.7,0.2,1.1
				C1861,496.7,1784.5,674.2,1764.3,802.3z"/>
		</g>
		<g class="st1">
			<path class="st2" d="M1766.1,862.1c0,0,39.4-272.9,184.9-425.6c8.9-9.3,23.8-10.4,33.4-1.9c6.3,5.5,10.9,15.5,9.9,33.1
				C1991.4,514.7,1835.2,709.5,1766.1,862.1z"/>
		</g>
	</g>
	<g class="st3">
		<g>
			<g>
				<path class="st4" d="M462.2,934.6h86.3c7.6,0,13.8-6.2,13.8-13.8V557.5c0-7.6-6.2-13.8-13.8-13.8h-86.3
					c-7.6,0-13.8,6.2-13.8,13.8v363.4C448.5,928.5,454.6,934.6,462.2,934.6z"/>
			</g>
			<g>
				<path class="st5" d="M532.1,850.3c0-14.7-11.9-26.7-26.7-26.7c-14.7,0-26.7,11.9-26.7,26.7c0,14.7,11.9,26.7,26.7,26.7
					C520.1,877,532.1,865.1,532.1,850.3z"/>
			</g>
			<g>
				<path class="st6" d="M505.4,880c-16.3,0-29.5-13.2-29.5-29.5c0-16.3,13.2-29.5,29.5-29.5c16.3,0,29.5,13.2,29.5,29.5
					C534.9,866.7,521.7,880,505.4,880z M505.4,826.6c-13.2,0-23.9,10.7-23.9,23.9c0,13.2,10.7,23.9,23.9,23.9
					c13.2,0,23.9-10.7,23.9-23.9C529.3,837.3,518.5,826.6,505.4,826.6z"/>
			</g>
			<g>
				<path class="st2" d="M477.1,781.3h56.5c2.8,0,5.1-2.3,5.1-5.1V566.7c0-2.8-2.3-5.1-5.1-5.1h-56.5c-2.8,0-5.1,2.3-5.1,5.1v209.5
					C472,779.1,474.3,781.3,477.1,781.3z"/>
			</g>
			<g>
				<path class="st7" d="M483.9,578.4h41.6c2.2,0,4-1.8,4-4v-0.7c0-2.2-1.8-4-4-4h-41.6c-2.2,0-4,1.8-4,4v0.7
					C479.9,576.6,481.7,578.4,483.9,578.4z"/>
			</g>
			<g>
				<g>
					<path class="st5" d="M513.9,710v45.3c0,1.2,1,2.2,2.2,2.2l0,0c1.2,0,2.2-1,2.2-2.2V710c0-1.2-1-2.2-2.2-2.2l0,0
						C514.9,707.8,513.9,708.8,513.9,710z"/>
				</g>
				<g>
					<path class="st5" d="M513.9,647.7V693c0,1.2,1,2.2,2.2,2.2l0,0c1.2,0,2.2-1,2.2-2.2v-45.3c0-1.2-1-2.2-2.2-2.2l0,0
						C514.9,645.5,513.9,646.5,513.9,647.7z"/>
				</g>
				<g>
					<path class="st5" d="M488.6,710v45.3c0,1.2,1,2.2,2.2,2.2l0,0c1.2,0,2.2-1,2.2-2.2V710c0-1.2-1-2.2-2.2-2.2l0,0
						C489.6,707.8,488.6,708.8,488.6,710z"/>
				</g>
				<g>
					<path class="st5" d="M488.6,647.7V693c0,1.2,1,2.2,2.2,2.2l0,0c1.2,0,2.2-1,2.2-2.2v-45.3c0-1.2-1-2.2-2.2-2.2l0,0
						C489.6,645.5,488.6,646.5,488.6,647.7z"/>
				</g>
				<g>
					<path class="st5" d="M501.8,697.2v58.1c0,1.2,1,2.2,2.2,2.2l0,0c1.2,0,2.2-1,2.2-2.2v-58.1c0-1.2-1-2.2-2.2-2.2l0,0
						C502.8,695,501.8,696,501.8,697.2z"/>
				</g>
				<g>
					<path class="st5" d="M501.8,618.9V677c0,1.2,1,2.2,2.2,2.2l0,0c1.2,0,2.2-1,2.2-2.2v-58.1c0-1.2-1-2.2-2.2-2.2l0,0
						C502.8,616.7,501.8,617.7,501.8,618.9z"/>
				</g>
			</g>
		</g>
		<g>
			<g>
				<path class="st4" d="M604.2,934.6h86.3c7.6,0,13.8-6.2,13.8-13.8V557.5c0-7.6-6.2-13.8-13.8-13.8h-86.3
					c-7.6,0-13.8,6.2-13.8,13.8v363.4C590.5,928.5,596.6,934.6,604.2,934.6z"/>
			</g>
			<g>
				<path class="st5" d="M674.1,850.3c0-14.7-11.9-26.7-26.7-26.7c-14.7,0-26.7,11.9-26.7,26.7c0,14.7,11.9,26.7,26.7,26.7
					C662.1,877,674.1,865.1,674.1,850.3z"/>
			</g>
			<g>
				<path class="st6" d="M647.4,880c-16.3,0-29.5-13.2-29.5-29.5c0-16.3,13.2-29.5,29.5-29.5c16.3,0,29.5,13.2,29.5,29.5
					C676.9,866.7,663.6,880,647.4,880z M647.4,826.6c-13.2,0-23.9,10.7-23.9,23.9c0,13.2,10.7,23.9,23.9,23.9
					c13.2,0,23.9-10.7,23.9-23.9C671.2,837.3,660.5,826.6,647.4,826.6z"/>
			</g>
			<g>
				<path class="st2" d="M619.1,781.3h56.5c2.8,0,5.1-2.3,5.1-5.1V566.7c0-2.8-2.3-5.1-5.1-5.1h-56.5c-2.8,0-5.1,2.3-5.1,5.1v209.5
					C614,779.1,616.3,781.3,619.1,781.3z"/>
			</g>
			<g>
				<path class="st7" d="M625.9,578.4h41.6c2.2,0,4-1.8,4-4v-0.7c0-2.2-1.8-4-4-4h-41.6c-2.2,0-4,1.8-4,4v0.7
					C621.8,576.6,623.6,578.4,625.9,578.4z"/>
			</g>
			<g>
				<g>
					<path class="st5" d="M655.9,710v45.3c0,1.2,1,2.2,2.2,2.2l0,0c1.2,0,2.2-1,2.2-2.2V710c0-1.2-1-2.2-2.2-2.2l0,0
						C656.9,707.8,655.9,708.8,655.9,710z"/>
				</g>
				<g>
					<path class="st5" d="M655.9,647.7V693c0,1.2,1,2.2,2.2,2.2l0,0c1.2,0,2.2-1,2.2-2.2v-45.3c0-1.2-1-2.2-2.2-2.2l0,0
						C656.9,645.5,655.9,646.5,655.9,647.7z"/>
				</g>
				<g>
					<path class="st5" d="M630.6,710v45.3c0,1.2,1,2.2,2.2,2.2l0,0c1.2,0,2.2-1,2.2-2.2V710c0-1.2-1-2.2-2.2-2.2l0,0
						C631.6,707.8,630.6,708.8,630.6,710z"/>
				</g>
				<g>
					<path class="st5" d="M630.6,647.7V693c0,1.2,1,2.2,2.2,2.2l0,0c1.2,0,2.2-1,2.2-2.2v-45.3c0-1.2-1-2.2-2.2-2.2l0,0
						C631.6,645.5,630.6,646.5,630.6,647.7z"/>
				</g>
				<g>
					<path class="st5" d="M643.8,697.2v58.1c0,1.2,1,2.2,2.2,2.2l0,0c1.2,0,2.2-1,2.2-2.2v-58.1c0-1.2-1-2.2-2.2-2.2l0,0
						C644.7,695,643.8,696,643.8,697.2z"/>
				</g>
				<g>
					<path class="st5" d="M643.8,618.9V677c0,1.2,1,2.2,2.2,2.2l0,0c1.2,0,2.2-1,2.2-2.2v-58.1c0-1.2-1-2.2-2.2-2.2l0,0
						C644.7,616.7,643.8,617.7,643.8,618.9z"/>
				</g>
			</g>
		</g>
		<g>
			<g>
				<path class="st4" d="M748.9,934.6h86.3c7.6,0,13.8-6.2,13.8-13.8V557.5c0-7.6-6.2-13.8-13.8-13.8h-86.3
					c-7.6,0-13.8,6.2-13.8,13.8v363.4C735.1,928.5,741.3,934.6,748.9,934.6z"/>
			</g>
			<g>
				<path class="st5" d="M818.8,850.3c0-14.7-11.9-26.7-26.7-26.7c-14.7,0-26.7,11.9-26.7,26.7c0,14.7,11.9,26.7,26.7,26.7
					C806.8,877,818.8,865.1,818.8,850.3z"/>
			</g>
			<g>
				<path class="st6" d="M792.1,880c-16.3,0-29.5-13.2-29.5-29.5c0-16.3,13.2-29.5,29.5-29.5c16.3,0,29.5,13.2,29.5,29.5
					C821.6,866.7,808.3,880,792.1,880z M792.1,826.6c-13.2,0-23.9,10.7-23.9,23.9c0,13.2,10.7,23.9,23.9,23.9
					c13.2,0,23.9-10.7,23.9-23.9C815.9,837.3,805.2,826.6,792.1,826.6z"/>
			</g>
			<g>
				<path class="st2" d="M763.8,781.3h56.5c2.8,0,5.1-2.3,5.1-5.1V566.7c0-2.8-2.3-5.1-5.1-5.1h-56.5c-2.8,0-5.1,2.3-5.1,5.1v209.5
					C758.7,779.1,761,781.3,763.8,781.3z"/>
			</g>
			<g>
				<path class="st7" d="M770.6,578.4h41.6c2.2,0,4-1.8,4-4v-0.7c0-2.2-1.8-4-4-4h-41.6c-2.2,0-4,1.8-4,4v0.7
					C766.5,576.6,768.3,578.4,770.6,578.4z"/>
			</g>
			<g>
				<g>
					<path class="st5" d="M800.6,710v45.3c0,1.2,1,2.2,2.2,2.2l0,0c1.2,0,2.2-1,2.2-2.2V710c0-1.2-1-2.2-2.2-2.2l0,0
						C801.6,707.8,800.6,708.8,800.6,710z"/>
				</g>
				<g>
					<path class="st5" d="M800.6,647.7V693c0,1.2,1,2.2,2.2,2.2l0,0c1.2,0,2.2-1,2.2-2.2v-45.3c0-1.2-1-2.2-2.2-2.2l0,0
						C801.6,645.5,800.6,646.5,800.6,647.7z"/>
				</g>
				<g>
					<path class="st5" d="M775.3,710v45.3c0,1.2,1,2.2,2.2,2.2l0,0c1.2,0,2.2-1,2.2-2.2V710c0-1.2-1-2.2-2.2-2.2l0,0
						C776.3,707.8,775.3,708.8,775.3,710z"/>
				</g>
				<g>
					<path class="st5" d="M775.3,647.7V693c0,1.2,1,2.2,2.2,2.2l0,0c1.2,0,2.2-1,2.2-2.2v-45.3c0-1.2-1-2.2-2.2-2.2l0,0
						C776.3,645.5,775.3,646.5,775.3,647.7z"/>
				</g>
				<g>
					<path class="st5" d="M788.5,697.2v58.1c0,1.2,1,2.2,2.2,2.2l0,0c1.2,0,2.2-1,2.2-2.2v-58.1c0-1.2-1-2.2-2.2-2.2l0,0
						C789.4,695,788.5,696,788.5,697.2z"/>
				</g>
				<g>
					<path class="st5" d="M788.5,618.9V677c0,1.2,1,2.2,2.2,2.2l0,0c1.2,0,2.2-1,2.2-2.2v-58.1c0-1.2-1-2.2-2.2-2.2l0,0
						C789.4,616.7,788.5,617.7,788.5,618.9z"/>
				</g>
			</g>
		</g>
		<g>
			<g>
				<path class="st4" d="M897.9,934.6h86.3c7.6,0,13.8-6.2,13.8-13.8V557.5c0-7.6-6.2-13.8-13.8-13.8h-86.3
					c-7.6,0-13.8,6.2-13.8,13.8v363.4C884.2,928.5,890.3,934.6,897.9,934.6z"/>
			</g>
			<g>
				<path class="st2" d="M912.8,781.3h56.5c2.8,0,5.1-2.3,5.1-5.1V566.7c0-2.8-2.3-5.1-5.1-5.1h-56.5c-2.8,0-5.1,2.3-5.1,5.1v209.5
					C907.7,779.1,910,781.3,912.8,781.3z"/>
			</g>
			<g>
				<path class="st7" d="M919.6,578.4h41.6c2.2,0,4-1.8,4-4v-0.7c0-2.2-1.8-4-4-4h-41.6c-2.2,0-4,1.8-4,4v0.7
					C915.5,576.6,917.3,578.4,919.6,578.4z"/>
			</g>
		</g>
		<g>
			<g>
				<path class="st4" d="M1041.7,934.6h86.3c7.6,0,13.8-6.2,13.8-13.8V557.5c0-7.6-6.2-13.8-13.8-13.8h-86.3
					c-7.6,0-13.8,6.2-13.8,13.8v363.4C1028,928.5,1034.1,934.6,1041.7,934.6z"/>
			</g>
			<g>
				<path class="st2" d="M1056.6,781.3h56.5c2.8,0,5.1-2.3,5.1-5.1V566.7c0-2.8-2.3-5.1-5.1-5.1h-56.5c-2.8,0-5.1,2.3-5.1,5.1v209.5
					C1051.5,779.1,1053.8,781.3,1056.6,781.3z"/>
			</g>
			<g>
				<path class="st7" d="M1063.4,578.4h41.6c2.2,0,4-1.8,4-4v-0.7c0-2.2-1.8-4-4-4h-41.6c-2.2,0-4,1.8-4,4v0.7
					C1059.3,576.6,1061.1,578.4,1063.4,578.4z"/>
			</g>
		</g>
		<g>
			<g>
				<path class="st4" d="M462.2,1376.7h86.3c7.6,0,13.8-6.2,13.8-13.8V999.6c0-7.6-6.2-13.8-13.8-13.8h-86.3
					c-7.6,0-13.8,6.2-13.8,13.8V1363C448.5,1370.6,454.6,1376.7,462.2,1376.7z"/>
			</g>
			<g>
				<circle class="st5" cx="505.4" cy="1292.4" r="26.7"/>
			</g>
			<g>
				<path class="st6" d="M505.4,1322.1c-16.3,0-29.5-13.2-29.5-29.5c0-16.3,13.2-29.5,29.5-29.5c16.3,0,29.5,13.2,29.5,29.5
					C534.9,1308.8,521.7,1322.1,505.4,1322.1z M505.4,1268.7c-13.2,0-23.9,10.7-23.9,23.9c0,13.2,10.7,23.9,23.9,23.9
					c13.2,0,23.9-10.7,23.9-23.9C529.3,1279.4,518.5,1268.7,505.4,1268.7z"/>
			</g>
			<g>
				<path class="st2" d="M477.1,1223.4h56.5c2.8,0,5.1-2.3,5.1-5.1v-209.5c0-2.8-2.3-5.1-5.1-5.1h-56.5c-2.8,0-5.1,2.3-5.1,5.1
					v209.5C472,1221.2,474.3,1223.4,477.1,1223.4z"/>
			</g>
			<g>
				<path class="st7" d="M483.9,1020.5h41.6c2.2,0,4-1.8,4-4v-0.7c0-2.2-1.8-4-4-4h-41.6c-2.2,0-4,1.8-4,4v0.7
					C479.9,1018.7,481.7,1020.5,483.9,1020.5z"/>
			</g>
			<g>
				<g>
					<path class="st5" d="M513.9,1152.1v45.3c0,1.2,1,2.2,2.2,2.2l0,0c1.2,0,2.2-1,2.2-2.2v-45.3c0-1.2-1-2.2-2.2-2.2l0,0
						C514.9,1149.9,513.9,1150.9,513.9,1152.1z"/>
				</g>
				<g>
					<path class="st5" d="M513.9,1089.8v45.3c0,1.2,1,2.2,2.2,2.2l0,0c1.2,0,2.2-1,2.2-2.2v-45.3c0-1.2-1-2.2-2.2-2.2l0,0
						C514.9,1087.6,513.9,1088.6,513.9,1089.8z"/>
				</g>
				<g>
					<path class="st5" d="M488.6,1152.1v45.3c0,1.2,1,2.2,2.2,2.2l0,0c1.2,0,2.2-1,2.2-2.2v-45.3c0-1.2-1-2.2-2.2-2.2l0,0
						C489.6,1149.9,488.6,1150.9,488.6,1152.1z"/>
				</g>
				<g>
					<path class="st5" d="M488.6,1089.8v45.3c0,1.2,1,2.2,2.2,2.2l0,0c1.2,0,2.2-1,2.2-2.2v-45.3c0-1.2-1-2.2-2.2-2.2l0,0
						C489.6,1087.6,488.6,1088.6,488.6,1089.8z"/>
				</g>
				<g>
					<path class="st5" d="M501.8,1139.3v58.1c0,1.2,1,2.2,2.2,2.2l0,0c1.2,0,2.2-1,2.2-2.2v-58.1c0-1.2-1-2.2-2.2-2.2l0,0
						C502.8,1137.1,501.8,1138.1,501.8,1139.3z"/>
				</g>
				<g>
					<path class="st5" d="M501.8,1061v58.1c0,1.2,1,2.2,2.2,2.2l0,0c1.2,0,2.2-1,2.2-2.2V1061c0-1.2-1-2.2-2.2-2.2l0,0
						C502.8,1058.8,501.8,1059.8,501.8,1061z"/>
				</g>
			</g>
		</g>
		<g>
			<g>
				<path class="st4" d="M604.2,1376.7h86.3c7.6,0,13.8-6.2,13.8-13.8V999.6c0-7.6-6.2-13.8-13.8-13.8h-86.3
					c-7.6,0-13.8,6.2-13.8,13.8V1363C590.5,1370.6,596.6,1376.7,604.2,1376.7z"/>
			</g>
			<g>
				<path class="st5" d="M674.1,1292.4c0-14.7-11.9-26.7-26.7-26.7c-14.7,0-26.7,11.9-26.7,26.7c0,14.7,11.9,26.7,26.7,26.7
					C662.1,1319.1,674.1,1307.2,674.1,1292.4z"/>
			</g>
			<g>
				<path class="st6" d="M647.4,1322.1c-16.3,0-29.5-13.2-29.5-29.5c0-16.3,13.2-29.5,29.5-29.5c16.3,0,29.5,13.2,29.5,29.5
					C676.9,1308.8,663.6,1322.1,647.4,1322.1z M647.4,1268.7c-13.2,0-23.9,10.7-23.9,23.9c0,13.2,10.7,23.9,23.9,23.9
					c13.2,0,23.9-10.7,23.9-23.9C671.2,1279.4,660.5,1268.7,647.4,1268.7z"/>
			</g>
			<g>
				<path class="st2" d="M619.1,1223.4h56.5c2.8,0,5.1-2.3,5.1-5.1v-209.5c0-2.8-2.3-5.1-5.1-5.1h-56.5c-2.8,0-5.1,2.3-5.1,5.1
					v209.5C614,1221.2,616.3,1223.4,619.1,1223.4z"/>
			</g>
			<g>
				<path class="st7" d="M625.9,1020.5h41.6c2.2,0,4-1.8,4-4v-0.7c0-2.2-1.8-4-4-4h-41.6c-2.2,0-4,1.8-4,4v0.7
					C621.8,1018.7,623.6,1020.5,625.9,1020.5z"/>
			</g>
			<g>
				<g>
					<path class="st5" d="M655.9,1152.1v45.3c0,1.2,1,2.2,2.2,2.2l0,0c1.2,0,2.2-1,2.2-2.2v-45.3c0-1.2-1-2.2-2.2-2.2l0,0
						C656.9,1149.9,655.9,1150.9,655.9,1152.1z"/>
				</g>
				<g>
					<path class="st5" d="M655.9,1089.8v45.3c0,1.2,1,2.2,2.2,2.2l0,0c1.2,0,2.2-1,2.2-2.2v-45.3c0-1.2-1-2.2-2.2-2.2l0,0
						C656.9,1087.6,655.9,1088.6,655.9,1089.8z"/>
				</g>
				<g>
					<path class="st5" d="M630.6,1152.1v45.3c0,1.2,1,2.2,2.2,2.2l0,0c1.2,0,2.2-1,2.2-2.2v-45.3c0-1.2-1-2.2-2.2-2.2l0,0
						C631.6,1149.9,630.6,1150.9,630.6,1152.1z"/>
				</g>
				<g>
					<path class="st5" d="M630.6,1089.8v45.3c0,1.2,1,2.2,2.2,2.2l0,0c1.2,0,2.2-1,2.2-2.2v-45.3c0-1.2-1-2.2-2.2-2.2l0,0
						C631.6,1087.6,630.6,1088.6,630.6,1089.8z"/>
				</g>
				<g>
					<path class="st5" d="M643.8,1139.3v58.1c0,1.2,1,2.2,2.2,2.2l0,0c1.2,0,2.2-1,2.2-2.2v-58.1c0-1.2-1-2.2-2.2-2.2l0,0
						C644.7,1137.1,643.8,1138.1,643.8,1139.3z"/>
				</g>
				<g>
					<path class="st5" d="M643.8,1061v58.1c0,1.2,1,2.2,2.2,2.2l0,0c1.2,0,2.2-1,2.2-2.2V1061c0-1.2-1-2.2-2.2-2.2l0,0
						C644.7,1058.8,643.8,1059.8,643.8,1061z"/>
				</g>
			</g>
		</g>
		<g>
			<g>
				<path class="st4" d="M748.9,1376.7h86.3c7.6,0,13.8-6.2,13.8-13.8V999.6c0-7.6-6.2-13.8-13.8-13.8h-86.3
					c-7.6,0-13.8,6.2-13.8,13.8V1363C735.1,1370.6,741.3,1376.7,748.9,1376.7z"/>
			</g>
		</g>
		<g>
			<g>
				<path class="st4" d="M897.9,1376.7h86.3c7.6,0,13.8-6.2,13.8-13.8V999.6c0-7.6-6.2-13.8-13.8-13.8h-86.3
					c-7.6,0-13.8,6.2-13.8,13.8V1363C884.2,1370.6,890.3,1376.7,897.9,1376.7z"/>
			</g>
		</g>
		<g>
			<g>
				<path class="st4" d="M1041.7,1376.7h86.3c7.6,0,13.8-6.2,13.8-13.8V999.6c0-7.6-6.2-13.8-13.8-13.8h-86.3
					c-7.6,0-13.8,6.2-13.8,13.8V1363C1028,1370.6,1034.1,1376.7,1041.7,1376.7z"/>
			</g>
		</g>
		<g>
			<path class="st8" d="M418,1605.7L418,1605.7c-7.6,0-13.7-6.1-13.7-13.7V503.3c0-7.6,6.1-13.7,13.7-13.7l0,0
				c7.6,0,13.7,6.1,13.7,13.7V1592C431.7,1599.6,425.6,1605.7,418,1605.7z"/>
		</g>
		<g>
			
				<rect x="404.3" y="934.7" transform="matrix(-1 -1.224647e-16 1.224647e-16 -1 1599.493 1880.3271)" class="st8" width="790.8" height="11"/>
		</g>
		<g>
			
				<rect x="404.3" y="1376.5" transform="matrix(-1 -1.224647e-16 1.224647e-16 -1 1648.5986 2764.0928)" class="st8" width="839.9" height="11"/>
		</g>
	</g>
	<g>
		<path class="st9" d="M2085,866.7c0,0-75.2,65.3-62.2,78.5c13,13.2,78.5-78.8,78.5-78.8s98.4,22.2,124.3,47
			c0,0-103.5,39.9-87.7,49.5c15.9,9.6,125.5-26.9,125.5-26.9s83.8,44.4,61.2,97c-22.6,52.6-58.7,59.3-71.7,53.4
			s-81.7-61.8-87.1-51.3c-5.3,10.5,30.1,62.1,62.7,74.7c0,0-85.3,48.4-120.4,14.8c-35-33.6-28.2-66.4-50.2-86.8s-44.2-27.6-37.5-12
			c6.7,15.6,49.8,42.8,56,73.9c6.2,31.1,13.7,53.2-27.2,32.5c-40.9-20.7-100.5-75.2-91.7-112.3c0.4-1.6,0.8-3.2,1.1-4.6
			c-1,2.8-1.1,4.6-1.1,4.6c-9.5-1.4-33.5,9-51.3,17.5c-2.8,1.6-6.9,3.7-12.7,6.3l0,0c-2.5,1.3-4.5,2.3-5.9,3.1
			c-37,21.2-72.9,80-72.9,80l-9.1-3.9c26.1-67.2,90.5-88.5,90.5-88.5c46.8-20.2,70.2-51.6,70.2-51.6s-37.7-91.5,34.7-117.9
			C2001.2,865,2051.5,853.4,2085,866.7z"/>
	</g>
	<g>
		<g>
			
				<rect x="2357.4" y="1196" transform="matrix(-1 -1.224647e-16 1.224647e-16 -1 4779.4189 2600.7051)" class="st10" width="64.7" height="208.6"/>
		</g>
		<g>
			
				<rect x="2201.4" y="1196" transform="matrix(-1 -1.224647e-16 1.224647e-16 -1 4558.8018 2600.7051)" class="st11" width="156" height="208.6"/>
		</g>
		<g>
			<path class="st12" d="M2400.5,1222.1c0-6-4.8-10.8-10.8-10.8c-6,0-10.8,4.8-10.8,10.8c0,6,4.8,10.8,10.8,10.8
				C2395.7,1232.9,2400.5,1228.1,2400.5,1222.1z"/>
		</g>
		<g>
			<path class="st13" d="M2397.3,1222.1c0-4.2-3.4-7.6-7.6-7.6c-4.2,0-7.6,3.4-7.6,7.6c0,4.2,3.4,7.6,7.6,7.6
				C2393.9,1229.7,2397.3,1226.3,2397.3,1222.1z"/>
		</g>
		<g>
			
				<rect x="2374.3" y="1248.1" transform="matrix(-1 -1.224647e-16 1.224647e-16 -1 4778.9443 2551.1504)" class="st14" width="30.4" height="54.9"/>
		</g>
	</g>
	<g>
		<g>
			
				<rect x="2236.7" y="1196" transform="matrix(-1 -1.224647e-16 1.224647e-16 -1 4538.1416 2600.7051)" class="st10" width="64.7" height="208.6"/>
		</g>
		<g>
			
				<rect x="2080.8" y="1196" transform="matrix(-1 -1.224647e-16 1.224647e-16 -1 4317.5244 2600.7051)" class="st11" width="156" height="208.6"/>
		</g>
		<g>
			<path class="st12" d="M2279.9,1222.1c0-6-4.8-10.8-10.8-10.8c-6,0-10.8,4.8-10.8,10.8c0,6,4.8,10.8,10.8,10.8
				C2275,1232.9,2279.9,1228.1,2279.9,1222.1z"/>
		</g>
		<g>
			<path class="st13" d="M2276.7,1222.1c0-4.2-3.4-7.6-7.6-7.6c-4.2,0-7.6,3.4-7.6,7.6c0,4.2,3.4,7.6,7.6,7.6
				C2273.3,1229.7,2276.7,1226.3,2276.7,1222.1z"/>
		</g>
		<g>
			
				<rect x="2253.6" y="1248.1" transform="matrix(-1 -1.224647e-16 1.224647e-16 -1 4537.667 2551.1504)" class="st14" width="30.4" height="54.9"/>
		</g>
	</g>
	<g>
		<g>
			
				<rect x="2126.4" y="1196" transform="matrix(-1 -1.224647e-16 1.224647e-16 -1 4317.5254 2600.7051)" class="st10" width="64.7" height="208.6"/>
		</g>
		<g>
			
				<rect x="1970.5" y="1196" transform="matrix(-1 -1.224647e-16 1.224647e-16 -1 4096.9092 2600.7051)" class="st11" width="156" height="208.6"/>
		</g>
		<g>
			<path class="st12" d="M2169.6,1222.1c0-6-4.8-10.8-10.8-10.8c-6,0-10.8,4.8-10.8,10.8c0,6,4.8,10.8,10.8,10.8
				C2164.7,1232.9,2169.6,1228.1,2169.6,1222.1z"/>
		</g>
		<g>
			<path class="st13" d="M2166.4,1222.1c0-4.2-3.4-7.6-7.6-7.6s-7.6,3.4-7.6,7.6c0,4.2,3.4,7.6,7.6,7.6S2166.4,1226.3,2166.4,1222.1
				z"/>
		</g>
		<g>
			
				<rect x="2143.3" y="1248.1" transform="matrix(-1 -1.224647e-16 1.224647e-16 -1 4317.0498 2551.1504)" class="st14" width="30.4" height="54.9"/>
		</g>
	</g>
	<g>
		<g>
			
				<rect x="1960.8" y="1331.9" transform="matrix(-1 -1.224647e-16 1.224647e-16 -1 4286.8965 2933.7461)" class="st15" width="365.4" height="269.9"/>
		</g>
		<g>
			
				<rect x="2156.6" y="1331.9" transform="matrix(-1 -1.224647e-16 1.224647e-16 -1 4602.8086 2933.7461)" class="st16" width="289.7" height="269.9"/>
		</g>
		<g>
			<path class="st11" d="M2280.4,1376h75c4.6,0,8.4-3.8,8.4-8.4v-1.1c0-4.6-3.8-8.4-8.4-8.4h-75c-4.6,0-8.4,3.8-8.4,8.4v1.1
				C2272,1372.2,2275.8,1376,2280.4,1376z"/>
		</g>
	</g>
	<g>
		<g>
			<path class="st17" d="M1410.4,979.1l-49.4,587.5c0,0-5.2,35.6,21.3,35.7c43.6,0.1,216.8,0,216.8,0s-32.8-7.4-32.4-24.1
				c0.5-19.7,57.7-604.6,57.7-604.6L1410.4,979.1z"/>
		</g>
		<g>
			<path class="st2" d="M1615.4,1591.6c-8.6,0-176.3,0.3-218.7-0.2c-18.5-0.2-21.7-16.4-21.9-26.9c-0.1-5,0.6-8.7,0.6-8.7l1.3-15.3
				l3.3-38.9l2.9-34.4l3.7-44.2l3.1-37.3l35.1-417.5l214.1-5.6c0,0-24.1,244.8-41.2,423c-1.9,19.9-3.7,38.9-5.4,56.7
				c-0.5,5.7-1.1,11.2-1.6,16.6c-1.6,16.9-3,32.3-4.3,46c-0.7,7.2-1.3,13.9-1.8,20c-2.2,24-3.5,39.4-3.5,42.3c0,1.7,0.1,3.3,0.4,4.8
				C1585,1590.7,1612.2,1591.6,1615.4,1591.6z"/>
		</g>
		<g>
			<polygon class="st2" points="890.6,659.1 1010.9,1142.6 1027.4,1208.8 1083.4,1434 2124.9,1434 1918.2,659.1 			"/>
		</g>
		<g>
			<polygon class="st17" points="890.6,659.1 873.9,664.7 1061.3,1450.8 1083.4,1434 			"/>
		</g>
		<g>
			<polygon class="st18" points="1061.3,1450.8 2096.3,1450.8 2124.9,1434 1083.4,1434 			"/>
		</g>
		<g>
			
				<rect x="1424.7" y="1591.6" transform="matrix(-1 -1.224647e-16 1.224647e-16 -1 3073.5566 3193.8154)" class="st2" width="224.1" height="10.6"/>
		</g>
		<g>
			<polygon class="st4" points="1591.9,1450.8 1590.7,1458.9 1380,1501.5 1382.8,1467.1 1384.2,1450.8 			"/>
		</g>
		<g class="st1">
			<path class="st4" d="M1615.4,1591.6c-8.6,0-176.3,0.3-218.7-0.2c-18.5-0.2-21.7-16.4-21.9-26.9l209.8-39.5
				c-2.2,24-3.5,39.4-3.5,42.3c0,1.7,0.1,3.3,0.4,4.8C1585,1590.7,1612.2,1591.6,1615.4,1591.6z"/>
		</g>
		<g>
			<polygon class="st4" points="890.6,659.1 1918.2,659.1 2085,1281.8 1045.6,1281.8 			"/>
		</g>
		<g>
			<polygon class="st19" points="2036.5,1254.9 1074.3,1254.9 1039.9,1117.9 1026.6,1064.9 1021.2,1043.3 985.8,902.5 984,895.2 
				965.3,820.8 957,787.5 949.8,759.1 944,735.9 933.1,692.5 1881.5,692.5 1893.5,735.9 1899.8,759.1 1907.7,787.5 1916.8,820.8 
				1977.3,1040.1 1977.3,1040.1 1982.4,1058.7 1984.8,1067.3 2026.6,1218.7 			"/>
		</g>
	</g>
	<g>
		<g>
			<g>
				<path class="st11" d="M833.2,993.7c0,0,2.5-27.4-28.1-27.4c0,0,9.3,2.5,14,7.5c0,0-19.5-11.4-40.7,6.1
					c-21.2,17.6-8,61.7-14.5,70.1c-6.5,8.4-31.6,10-28.5,37.1c3.1,27.1,79.7,61,74.8,83.4c0,0,30-44.2,8.6-64.3
					c0,0,10.5,9.9,11.5,21.6c0,0,2.8-22.9-11.7-30.2c-12.9-6.5-23.4-30.2-22.3-34.4C797.5,1059,833.2,993.7,833.2,993.7z"/>
			</g>
			<g>
				<path class="st20" d="M803.1,1125c0,0,22.8,94.5,45.2,113.3c13.5,11.3,53.5,37.4,53.5,37.4l-16.7,6c0,0-55.6-18.8-68-33.4
					c-12.4-14.6-46.5-87.9-46.5-87.9L803.1,1125z"/>
			</g>
			<g>
				<path class="st7" d="M934.9,1310.2l-5.4-13.3c-5.8-14.2-19.6-23.6-34.9-23.6h-99v62.8v268.1h409.4v-268.1H973.4
					C956.5,1336.2,941.2,1325.9,934.9,1310.2z"/>
			</g>
			<g>
				<path class="st21" d="M588.5,1290.9c0.2,0.4,0.4,0.7,0.6,1.1c5,8.7,16.5,30,29.1,53.2c6,11,12.2,22.5,18.2,33.4
					c10.2,18.7,19.5,35.3,24.9,44.1c5.5,8.9,9.6,15.2,11.2,17.7c0,0,0,0,0,0c0.5,0.8,0.6,1.7,0.5,2.6c-0.6,7.9-0.4,15.7,0.4,23.4
					c7.6,75.8,58.7,116.4,58.7,116.4l15.2,2.2c0,0-21.5-79.6-27.8-124.6c-1.1-7.6-1.5-13.8-1.2-17.8c1.1-11.7-1-28.9-4.9-48.7
					c-7-35.1-19.9-78.3-31.1-112.8c-0.7-2.2-22.1-79.5-22.1-79.5c-17.9,15.7-83.3,22.1-83.3,22.1S565.9,1250.7,588.5,1290.9z"/>
			</g>
			<g>
				<path class="st22" d="M779.2,1604.3h-63.4c0,0-1.5-9.7,1.8-17c3.2-7,7.7-7.3,0.6-18.3c4,4.1,17,5.9,26.1,4.6
					c1.1,1.8,7.2,14,11,16.7C759.5,1593.4,777.9,1592.3,779.2,1604.3z"/>
			</g>
			<g>
				<path class="st22" d="M588.5,1290.9c0.2,0.4,0.4,0.7,0.6,1.1c5,8.7,32,58.6,44.6,81.9c-14.6-60.2-4.5-120.4-4.5-120.4
					L588.5,1290.9z"/>
			</g>
			<g>
				<path class="st11" d="M824.5,989.8c0.4-1.7-36.2,16.6-38.1,18.6c-17.2,19-12.3,43.9-2.4,44.1c6.3,0.2,5.1,10.6,5.1,10.6
					l70.2-29.7C859.3,1033.5,850.9,984.2,824.5,989.8z"/>
			</g>
			<g>
				<path class="st23" d="M800.9,1110.8c0,0,10.7,21.3,9.3,38.7c0,0-12.9,20.3-46.3,25.5C764,1175,792.7,1110.8,800.9,1110.8z"/>
			</g>
			<g>
				<path class="st21" d="M637.9,1228.5l0.2-11.9c-23.6,3-81.4-28.2-81.4-28.2s-24.7,16.4-28.1,63.4
					c-1.7,22.9-12.1,119.8-13.3,148.7c-0.4,10.5-0.6,18-0.6,21c0,0,0,0,0,0c0,0.9-0.4,1.7-1,2.4c-4.9,6.2-9.1,12.8-12.8,19.6
					c-36,67.1-17.2,158.2-17.2,158.2l8.4-2.1c0,0,30.5-94.5,50.4-135.3c3.4-6.9,6.5-12.3,9-15.4c7.5-9.1,15.4-24.5,23.2-43.1
					C589.4,1370.6,637.9,1228.5,637.9,1228.5z"/>
			</g>
			<g>
				<path class="st22" d="M534.2,1604.3h-63.4c0,0-1.5-9.7,1.8-17c3.2-7,8.1-10.2,7-18.7c4,4.1,10.6,8.8,19.8,7.6
					c1.1,1.8,7.2,11.6,11,14.3C514.4,1593.4,532.9,1592.3,534.2,1604.3z"/>
			</g>
			<g>
				<path class="st24" d="M759.7,1188.6c-8.5,1.5,1.4,8.2-10.3,9.5c-16.7,1.8-33.9,3.1-42.9,6.7c-3.3,1.3-5.5,2.9-6.2,5
					c-3.9,11.8-28.7,31.9-28.7,31.9c-110.4-5-117.5-54.2-117.5-54.2c71.6-69.6,132.6-107.5,183-112.2c12.3-1.1,28.8,0.4,36.5,3.8
					c17.6,7.8,27.3,31.7,27.3,31.7S792.1,1183.1,759.7,1188.6z"/>
			</g>
			<g>
				<path class="st23" d="M749.4,1198.1c-16.7,1.8-33.9,3.1-42.9,6.7c-3.7-55,22.3-96.5,22.3-96.5S745.7,1177.2,749.4,1198.1z"/>
			</g>
			<g>
				<path class="st20" d="M763.8,1099c0,0-41.9-2.3-49.4,24c-7.4,26.3,14,131.4,18.6,142.2c8.4,19.7,50.8,78.5,50.8,78.5l13.6-7
					c0,0-27.3-86.1-33.4-94.6C754.4,1228.7,776.3,1110.4,763.8,1099z"/>
			</g>
			<g>
				<path class="st20" d="M797.4,1336.7c0,0,3.5,3,6.3,6.5c2.8,3.4,0.3,4.7,8.4,20.3c0,0-0.4,2.2-2.2,1.8c-1.8-0.4-7.9-6.4-11-6
					c0,0-2.2,1.8-2.5,8c-0.2,5.7-0.2,18.4-1.2,20.7c-1,2.4-8.3-10-11.8-18.9c-3.1-7.8-0.1-34.2-0.1-34.2L797.4,1336.7z"/>
			</g>
			<g>
				<path class="st24" d="M706.1,1158.2c0.1,0.6,39.7,7.3,64.4-5.3c0,0,20.7-64.8-8.9-61.7c-29.5,3.1-47,12.4-47.8,26.5
					C713.2,1131.9,706.1,1158.2,706.1,1158.2z"/>
			</g>
			<g>
				<path class="st20" d="M772.7,1083.6c0.4,5.2,1.1,11.4,8,18.4c5.3,5.4,12.8,9.6,18.2,4.3c2.7-2.7,6.4-6.8,8.2-10
					c4.6-7.9,10.1-16,10.1-16l-23.7-20.8l-1.4-1.2c-6.2,10.9-12.3,16.1-17.7,20.1C772.8,1079.6,772.6,1081.6,772.7,1083.6z"/>
			</g>
			<g>
				<path class="st25" d="M817.2,1080.4c0,0-5.5,8.1-10.1,16c-14.7-9.1-14.8-27.3-13.6-36.8L817.2,1080.4z"/>
			</g>
			<g>
				<path class="st20" d="M817.9,1090.8c0,0-35.8-19.9-23.1-42s16.7-39.6,40.1-27.8c23.4,11.8,22.9,22.8,20.5,31.2
					C852.9,1060.6,827.5,1095.4,817.9,1090.8z"/>
			</g>
			<g>
				<path class="st11" d="M861.4,1039.3c-1.6-9.8-6.6-10.8-10.1-10.1c-13.2-21.9-34.8-13.3-34.8-13.3c-11.5,14.5-28.2,17-28.2,17
					s4.2,7.7,21.3,12.5c5.2,1.5,11.2,0.6,16.9-1.4c-11.9,6.6-24.3,9.2-24.3,9.2c22.6,2.1,44-18.6,46.2-20.8c1,3.2,2.9,9.9,1.8,14.8
					c-1.5,6.6-7.4,18.7-3.8,20.2C846.4,1067.4,863.9,1054,861.4,1039.3z"/>
			</g>
			<g>
				<path class="st20" d="M908.4,1275.8c0,0-10,7.5-2.5,12.4c7.5,4.9,21,6.2,21,3C927.2,1280.4,921.8,1272.7,908.4,1275.8z"/>
			</g>
		</g>
	</g>
	<g>
		<path class="st22" d="M2595.2,1609H264c-1.5,0-2.8-1.2-2.8-2.8v-1.2c0-1.5,1.2-2.8,2.8-2.8h2331.1c1.5,0,2.8,1.2,2.8,2.8v1.2
			C2597.9,1607.8,2596.7,1609,2595.2,1609z"/>
	</g>
	<g>
		<path class="st7" d="M1147.7,858.1l-8.9-13.1c-9.5-14.1-25.7-23.2-40.8-23.2h-97.6l16.9,61.9l67.2,245.8c3,11,13,18.7,24.4,18.7
			h351.3c16.7,0,28.9-15.9,24.4-32l-63.6-232.4h-228.5C1175.9,883.6,1158.1,873.5,1147.7,858.1z"/>
	</g>
	<g>
		<g>
			<g>
				<path class="st20" d="M1157.8,784.3c-1.5,1.8-1.7,3.7-1,5.8c0,0,0,0,0,0c1.4,3.9,6,8.2,11.4,12.5c0.7,0.6,1.3,1.1,1.8,1.5
					c0.1,0.1,0.3,0.2,0.4,0.4c0.1,0.1,0.2,0.2,0.3,0.3c5,4.6,3.1,5.7,12.1,15.1c10.3,10.7,17.3,10.9,19.3,9.9
					c1.7-0.8-1.8-6.5-5.6-12.9c-0.2-0.3-0.4-0.6-0.6-0.9c-0.5-0.8-1-1.7-1.5-2.6c-4.5-7.7-3.3-11.3-2.3-22.7
					c0.9-9.3,14.4-51.8,14.4-51.8l-19.7-3.4c0,0-5.9,33.9-12.5,39.1c-3.5,2.8-7.4,2.8-10.8,4.9c-0.2,0.1-0.5,0.3-0.7,0.4
					C1161.3,781.3,1159.3,782.6,1157.8,784.3z"/>
			</g>
			<g>
				<path class="st22" d="M1157.8,784.3c-1.5,1.8-1.7,3.7-1,5.8c0,0,0,0,0,0c1.7,3.9,6.2,8.2,11.4,12.5c0.7,0.6,1.3,1.1,1.8,1.6
					c0.1,0.1,0.3,0.2,0.4,0.4c0.1,0.1,0.2,0.2,0.3,0.3c5,4.6,3.1,5.7,12.1,15.1c10.3,10.7,17.3,10.9,19.3,9.9
					c1.7-0.8-1.8-6.5-5.6-12.9c-2-0.7-11.3-4.5-18.3-13.5c-6-7.6-10-17.3-14.1-23.2c-0.4-0.1-0.7-0.1-1.2-0.2
					C1161.3,781.3,1159.3,782.6,1157.8,784.3z"/>
			</g>
			<g>
				<path class="st20" d="M1316.5,772.1c1.2,6.1,9.9,5.1,19.5,2.7c9.7-2.4,7.4,0.4,21.1-1.1c13.8-1.5,17.9-6.7,18.4-8.7
					c0.4-1.8-6.4-2.5-13.7-3.3c-0.9-0.1-1.8-0.2-2.8-0.3c-8.2-1-14.3-6.4-21.8-10.7c-7.1-4.1-17.7-21-17.7-21l-18.9,1.5
					c0,0,9.9,15.1,13.7,21.6c2.3,3.8,2.1,8.9,1.9,12.9C1316.2,767.8,1316.1,769.9,1316.5,772.1z"/>
			</g>
			<g>
				<path class="st22" d="M1336,774.8c9.7-2.4,7.4,0.4,21.1-1.1c13.8-1.5,17.9-6.7,18.4-8.7c0.4-1.8-6.4-2.5-13.7-3.3l-0.1,0.1
					c0,0-8.3,5.9-19.7,6.1c-9.3,0.2-19.2-2.5-25.7-2.4c-0.1,2.1-0.3,4.3,0.1,6.5C1317.7,778.2,1326.4,777.2,1336,774.8z"/>
			</g>
			<g>
				<path class="st26" d="M1244.2,651.3l-17.7,47.5l-23.1,62c0,0-6.3,0.6-12.2-1.1c-5.5-1.6-11.8-5.8-11.8-5.8s6.4-66.6,18.4-104.8
					c3.1-9.8,6.5-17.7,10.3-22.2C1226.5,605.1,1244.2,651.3,1244.2,651.3z"/>
			</g>
			<g>
				<path class="st7" d="M1226.2,575.9c-10-3.2-36.3-0.1-64.7,5.1c-7.9,1.4-15.8-2.2-19.9-9l0,0l-71.6-5.6c0,0-23.6,52.4-10.7,85.7
					c1.9,4.9,6.1,8,12.5,8.1c0,0,0,0,0,0c0,0,43.2,0.1,57.1,0.1c35.6,0,75.3-24.4,80.5-25.5c8.4-1.7,11.8,15.1,20.2,32.8
					c8.4,17.7,79.1,78.3,79.1,78.3s10.9,0.1,15.3-1.6c4.8-1.8,6.6-4.2,6.6-4.2S1252.3,584.3,1226.2,575.9z"/>
			</g>
			<g>
				<path class="st22" d="M1134.1,361.8c-5.3-3.2-10.5-3.7-13.7-3.6c-2.2,0.1-4.4-0.1-6.6-0.4c-27.3-4-43.8,35.7-44.7,47.6
					c-1.8,22-13.4,25.4-29.8,39.1c-32.9,27.6-23.2,59.7-5.3,71.7c10.8,7.2,29.8,0,29.8,0c0.3,0.2,52-28.9,77.5-42.9
					C1179.4,468,1149.4,370.9,1134.1,361.8z"/>
			</g>
			<g>
				<path class="st20" d="M1119.9,461.5c0.1,0.1-12.5,4.4-21,0.6c-8-3.5-14-16.6-13.9-16.6c3.6-0.2,7.6-3.3,10.7-24.1l1.5,0.6
					l25.9,9.3c0,0-1.9,8.3-3.1,16.2C1119,454.1,1118.5,460.5,1119.9,461.5z"/>
			</g>
			<g>
				<path class="st27" d="M1123.1,431.3c0,0-1,4.5-2.5,12.9c-14.9-2.7-21.3-14.2-23.4-22.2L1123.1,431.3z"/>
			</g>
			<g>
				<path class="st20" d="M1127,439.5c0,0-35.5-4.8-32.1-26.8c3.3-22,1-37.5,23.7-35.4c22.8,2.1,25.9,11.2,26.6,18.8
					C1145.9,403.8,1136.3,440.2,1127,439.5z"/>
			</g>
			<g>
				<path class="st22" d="M1143.9,384.1c0,0-22.7,19.6-38.1,21.1c-15.4,1.6-21.3-3.4-21.3-3.4s9.1-7.6,14.6-19.7
					c1.6-3.6,5-6.1,9-6.4C1119,374.7,1139.9,374.3,1143.9,384.1z"/>
			</g>
			<g>
				<path class="st22" d="M1129.7,382.3c0,0,7.6,7.3,10,12.8c2.3,5.3,3,17.8,1.2,22.8c0,0,11.8-23,5.1-34.2
					C1138.9,371.9,1129.7,382.3,1129.7,382.3z"/>
			</g>
			<g>
				<path class="st21" d="M1149.7,513.7c-1.1,71.8-0.3,56.8-8.2,63.6c-1.9,1.6-7.2,2.6-14.2,3.1c-22,1.5-60.7-2.2-62.2-6.3
					c-5.1-14.1-1.5-18.4-5.7-40c-0.4-2.3-1-4.8-1.6-7.5c-3.5-14.8-7-19.8,5.6-43.6c11.4-21.5,23.2-39,24.2-38.4
					c30,17.8,32.4,2.8,32.4,2.8S1150.3,478.7,1149.7,513.7z"/>
			</g>
			<g>
				<path class="st7" d="M1226.5,698.8l-23.1,62c0,0-6.3,0.6-12.2-1.1c-5.5-1.6-11.8-5.8-11.8-5.8s6.4-66.6,18.4-104.8L1226.5,698.8
					z"/>
			</g>
			<g>
				<path class="st21" d="M1120,447.5c0,0,30.8,5.2,34.5,18.5c3.6,13.3,15.5,93.9,15.5,93.9s-8.7,8.5-15.9,1.2
					c-7.2-7.2-22.8-75.4-22.8-75.4L1120,447.5z"/>
			</g>
			<g>
				<path class="st22" d="M1127.3,580.4c-22,1.5-60.7-2.2-62.2-6.3c-5.1-14.1-1.5-18.4-5.7-40l10.6-29.9c0,0-1.8,33.3,8,42
					c9.8,8.8,40.2,16.9,45,24.2C1125.4,574,1126.9,577.5,1127.3,580.4z"/>
			</g>
			<g>
				<path class="st20" d="M1102.1,566.4c0,0,21.7-4.8,25.2-2.9c3.5,1.9,12.1,8.9,13.1,11.4c1.1,2.4-7.8-1.9-10.7-2.6
					c-1.9-0.5-6.8,1.2-9.2,2c-10.2,3.4-16.5,1.7-16.5,1.7L1102.1,566.4z"/>
			</g>
			<g>
				<path class="st21" d="M1087.6,444.6c0,0-29.2,1.8-39.3,15.9c-14.2,19.8-42.4,104.3-26.3,115.5c18.2,12.7,82.8,3.3,82.8,3.3
					s2.2-10-0.8-14.9c-3-4.9-51.6-12.7-53.8-15c-2.2-2.2,28.1-43.7,28.1-50.5C1078.3,492.3,1087.6,444.6,1087.6,444.6z"/>
			</g>
			<g>
				<path class="st20" d="M1128.4,569.5c0,0,4.5,5.9,6,6.6c1.5,0.7,2.5,0.5,2.5,0.5l-3.1-5.5L1128.4,569.5z"/>
			</g>
			<g>
				<path class="st20" d="M1127.4,563.5l13.2,6.4c0,0-0.6,0.9-2.2,0.8c-1.6-0.1-5.7-1.6-5.7-1.6L1127.4,563.5z"/>
			</g>
		</g>
		<g>
			<polygon class="st22" points="1240.3,578.6 1102.1,578.5 1102.1,581.6 1239.1,581.6 			"/>
		</g>
		<g>
			<polygon class="st22" points="1134.4,581.6 1239.1,581.6 1270.6,503.4 1166.1,503.3 			"/>
		</g>
		<g>
			<path class="st6" d="M1212.7,542.5c0.8-2.8-0.8-5-3.6-5c-2.8,0-5.6,2.2-6.4,5c-0.8,2.8,0.8,5,3.6,5
				C1209,547.5,1211.9,545.2,1212.7,542.5z"/>
		</g>
	</g>
	<g class="st1">
		<polygon class="st4" points="1728.8,840.4 1699.9,803.4 1698.5,801.7 1696.9,801.4 1563.3,776.8 1518.4,1021.1 1691.5,1053 
			1730,844 1730.3,842.3 		"/>
	</g>
	<g>
		<g>
			<polygon class="st4" points="1641.9,764.6 1642,766.3 1650.2,978.7 1474.3,985.5 1464.7,737.3 1600.4,732 1602,731.9 
				1603.8,733.3 1640.1,763.1 			"/>
		</g>
	</g>
	<g>
		<g>
			<path class="st22" d="M1526.2,825.4l-293.6,16.4c-0.6,0-1,0.5-1,1.1l21.4,384.5c0,0.6,0.5,1,1.1,1l293.2-16.3c0.6,0,1-0.5,1-1.1
				L1526.9,826C1526.9,825.7,1526.6,825.4,1526.2,825.4z"/>
		</g>
		<g>
			<path class="st0" d="M1525.7,1199.9l-248.7,15.6c-7.5,0.5-13.9-5.2-14.4-12.7l-21.2-338c-0.5-7.5,5.2-13.9,12.7-14.4l248.7-15.6
				c7.5-0.5,13.9,5.2,14.4,12.7l21.2,338C1538.8,1193,1533.1,1199.5,1525.7,1199.9z"/>
		</g>
		<g>
			<g>
				<path class="st8" d="M1427.5,890.7l-156.5,9.8c-0.1,0-0.1-0.1-0.2-0.1l-0.2-3.9c0-0.1,0.1-0.1,0.1-0.2l156.5-9.8
					c0.1,0,0.1,0.1,0.2,0.1l0.2,3.9C1427.6,890.6,1427.6,890.7,1427.5,890.7z"/>
			</g>
			<g>
				<path class="st8" d="M1429.6,924.3l-156.5,9.8c-0.1,0-0.1-0.1-0.2-0.1l-0.2-3.9c0-0.1,0.1-0.1,0.1-0.2l156.5-9.8
					c0.1,0,0.1,0.1,0.2,0.1l0.2,3.9C1429.8,924.2,1429.7,924.3,1429.6,924.3z"/>
			</g>
			<g>
				<path class="st8" d="M1488.3,903.8l-216.2,13.6c-0.1,0-0.1-0.1-0.2-0.1l-0.2-3.9c0-0.1,0.1-0.1,0.1-0.2l216.2-13.6
					c0.1,0,0.1,0.1,0.2,0.1l0.2,3.9C1488.5,903.7,1488.4,903.7,1488.3,903.8z"/>
			</g>
			<g>
				<path class="st8" d="M1391.8,1031.1l-106.5,6.7c-0.1,0-0.1,0-0.1-0.1l-0.2-4c0-0.1,0-0.1,0.1-0.1l106.4-6.7c0.1,0,0.1,0,0.1,0.1
					l0.2,4C1391.9,1031,1391.9,1031.1,1391.8,1031.1z"/>
			</g>
			<g>
				<path class="st8" d="M1431.4,1011.7l-147.1,9.2c-0.1,0-0.1,0-0.1-0.1l-0.2-4c0-0.1,0-0.1,0.1-0.1l147.1-9.2c0.1,0,0.1,0,0.1,0.1
					l0.2,4C1431.5,1011.7,1431.5,1011.7,1431.4,1011.7z"/>
			</g>
			<g>
				<path class="st8" d="M1442.3,1046.7l-156.5,9.8c-0.1,0-0.1-0.1-0.2-0.1l-0.2-3.9c0-0.1,0.1-0.1,0.1-0.2l156.5-9.8
					c0.1,0,0.1,0.1,0.2,0.1l0.2,3.9C1442.4,1046.6,1442.4,1046.7,1442.3,1046.7z"/>
			</g>
			<g>
				<path class="st8" d="M1460.8,1062.4l-174,10.9c-0.1,0-0.1,0-0.1-0.1l-0.2-3.9c0-0.1,0.1-0.1,0.1-0.1l174-10.9
					c0.1,0,0.1,0.1,0.1,0.1l0.2,3.9C1461,1062.3,1460.9,1062.4,1460.8,1062.4z"/>
			</g>
			<g>
				<path class="st8" d="M1401.6,1095.7l-112,7c-0.1,0-0.1,0-0.1-0.1l-0.2-4c0-0.1,0-0.1,0.1-0.1l112-7c0.1,0,0.1,0,0.1,0.1l0.2,4
					C1401.7,1095.6,1401.7,1095.7,1401.6,1095.7z"/>
			</g>
			<g>
				<path class="st8" d="M1403.7,1129.3l-112,7c-0.1,0-0.1,0-0.1-0.1l-0.2-4c0-0.1,0-0.1,0.1-0.1l112-7c0.1,0,0.1,0,0.1,0.1l0.2,4
					C1403.9,1129.2,1403.8,1129.3,1403.7,1129.3z"/>
			</g>
			<g>
				<path class="st8" d="M1445.5,1109.8l-154.8,9.7c-0.1,0-0.1,0-0.1-0.1l-0.2-4c0-0.1,0-0.1,0.1-0.1l154.8-9.7c0.1,0,0.1,0,0.1,0.1
					l0.2,4C1445.6,1109.8,1445.5,1109.8,1445.5,1109.8z"/>
			</g>
		</g>
		<g>
			<path class="st16" d="M1446.2,808.6l-136.9,7.6c-9,0.5-16,7.7-15.5,16.1l1.2,20.7c0.1,1.9,1.9,3.4,4,3.3l162.1-9
				c2.1-0.1,3.7-1.8,3.6-3.7l-1.2-20.7C1462.9,814.5,1455.2,808.1,1446.2,808.6z"/>
		</g>
	</g>
	<g>
		<g>
			<path class="st20" d="M1693.6,974.8c0,0-2.8-6.4-4.7-9.4c-1.8-3-9.7-11.9-11.1-9.9c-1.3,2-6.7,15.5-3.9,19.3
				c2.8,3.8-0.2,10.4,14,14.4L1693.6,974.8z"/>
		</g>
		<g>
			<path class="st26" d="M1851,934.4c0,0-72.5,60.5-100.8,54.9c-22.1-4.4-57.1-15.5-57.1-15.5s-9.2,8.8-6.6,19.3
				c0,0,44.5,41.9,76.3,42.2c49.6,0.4,73-24.6,73-24.6L1851,934.4z"/>
		</g>
		<g>
			<path class="st28" d="M1978.2,1572.9c0,0-2.1,34-8.7,34.4c-0.9,0.1-33.3,0.1-33.3,0.1l-41.4-0.2c0,0,0.3-10,12.4-12.1
				c12.1-2.1,32.4-10.6,39.7-26.6C1954.6,1551.6,1978.2,1572.9,1978.2,1572.9z"/>
		</g>
		<g>
			<path class="st29" d="M1980.6,1575.3c0,0-12.6,4.2-22.4,4.2c-11,0-20.9-3-20.9-3s-2.4-22.9-15.4-73.4
				c-6.8-26.5-16.6-60.5-30.5-102.8c-38.4-116.9-50.1-185.3-51.2-191.8c-0.1-0.3-0.1-0.5-0.1-0.5l0.1-0.1l118.1-51.9
				c0,0-14.6,161.1,4,223c2.6,8.6,4.8,18.7,6.8,29.6C1980.9,1475.8,1980.6,1575.3,1980.6,1575.3z"/>
		</g>
		<g>
			<path class="st22" d="M1921.8,1503c-6.8-26.5-16.6-60.5-30.5-102.8c-38.4-116.9-50.1-185.3-51.2-191.8c0-0.2,0-0.4,0-0.6
				l118.1-51.9c0,0-14.6,161.1,4,223C1964.9,1387.6,1921.8,1503,1921.8,1503z"/>
		</g>
		<g>
			<path class="st30" d="M1885.9,1572.9c0,0-2.1,34-8.7,34.4c-0.9,0.1-33.3,0.1-33.3,0.1l-41.4-0.2c0,0,0.3-10,12.4-12.1
				c12.1-2.1,32.4-10.6,39.7-26.6C1862.3,1551.6,1885.9,1572.9,1885.9,1572.9z"/>
		</g>
		<g>
			<path class="st29" d="M1819,1159.8c0,0-1.5,104.4,16.5,232.6c18.1,128.2,11.9,182.6,11.9,182.6s12.4,4,17.4,4.4
				c12.8,1,25.8-3,25.8-3s25.9-128.2,18.4-192.4c-7.4-64.2,35.4-220.2,35.4-220.2L1819,1159.8z"/>
		</g>
		<g>
			<path class="st20" d="M1902.7,915.5l-23.1,15.1l-21-5.9c-3.8-5.5-4.9-16-4.9-25.2c-0.1-9.1,0.8-16.8,0.8-16.8l31.1-13.7l11.6-5.1
				c0,0.2-0.9,9.5-1,10.9C1894.1,899,1902.7,915.5,1902.7,915.5z"/>
		</g>
		<g>
			<path class="st7" d="M1818.4,1188.8c28.7,27.7,137.3,23,144-7.5c6.7-30.5-7.3-259.9-56.3-274.3c-10.2-3-64.6,14.6-64.6,14.6
				s-8.5,22.3-14.1,50.7c-1.1,5.5-4.3,64.1-6.6,119c-1.1,25.6-2,50.5-2.5,68.6C1817.8,1177.1,1817.8,1188.2,1818.4,1188.8z"/>
		</g>
		<g>
			<path class="st31" d="M1893.9,875.2c-6.3,10.7-28.5,20-40.2,24.3c-0.1-9.1,0.8-16.8,0.8-16.8l31.1-13.7
				C1892.6,868.9,1896.7,870.4,1893.9,875.2z"/>
		</g>
		<g>
			<path class="st20" d="M1842.8,880.8c0,0,50.1,15.6,59.4-15.7c9.3-31.4,22-50.5-9.7-61.8c-31.6-11.3-41.4-1.2-47,8.5
				S1830,875.9,1842.8,880.8z"/>
		</g>
		<g>
			<path class="st32" d="M1847.5,808.8c0,0,3.2,36.5,10.7,34.9c7.5-1.6,15.9-5,14.8,6c-1.1,11,7.3,29.9,18.2,29.8
				c23.3-0.1,48.7-60,42.3-71.4C1915.1,775.5,1820.9,768.8,1847.5,808.8z"/>
		</g>
		<g>
			<path class="st26" d="M1854.9,907.9c0.6-0.3,37.3-16.7,41.6-15.3c4.3,1.4,9.6,14.5,9.6,14.5l-64.6,14.6
				C1841.6,921.7,1846.6,911.3,1854.9,907.9z"/>
		</g>
		<g>
			<g>
				<path class="st33" d="M1626.6,1085.5l205.5,193.5c4,3.8,9.1,5,11.3,2.7l6.9-7.4c2.2-2.3,0.7-7.3-3.4-11.1l-205.5-193.5
					c-4-3.8-9.1-5-11.3-2.7l-6.9,7.4C1621.1,1076.7,1622.6,1081.7,1626.6,1085.5z"/>
			</g>
			<g>
				<path class="st24" d="M1742,1194.1l90.2,84.9c4,3.8,9.1,5,11.3,2.7l6.9-7.4c2.2-2.3,0.7-7.3-3.4-11.1l-90.2-84.9L1742,1194.1z"
					/>
			</g>
			<g>
				<path class="st33" d="M1637.1,855c-61-64.8-162.9-67.9-227.7-6.9c-0.9,0.8-1.7,1.6-2.5,2.4c-62.4,61.2-64.6,161.3-4.4,225.3
					c61,64.8,162.9,67.9,227.7,6.9c21.2-20,35.8-44.3,43.7-70.3C1690.1,959,1678.1,898.6,1637.1,855z M1621.4,1073.5
					c-37.7,35.5-89.1,47.4-136,36.3c-27.3-6.5-53.1-20.7-73.8-42.7c-56.2-59.7-53.3-153.6,6.4-209.7c22-20.7,48.6-33.3,76.2-38.1
					c47.5-8.2,98,6.8,133.5,44.5C1684,923.4,1681.1,1017.3,1621.4,1073.5z"/>
			</g>
			<g class="st1">
				<g>
					<path class="st34" d="M1411.7,1067.1c20.7,22,46.5,36.2,73.8,42.7c46.9,11.1,98.3-0.8,136-36.3c59.7-56.2,62.5-150.1,6.4-209.7
						c-35.5-37.7-86-52.7-133.5-44.5c-27.7,4.8-54.3,17.5-76.2,38.1C1358.4,913.5,1355.5,1007.4,1411.7,1067.1z"/>
				</g>
			</g>
		</g>
		<g>
			<path class="st26" d="M1818.3,1160c113.3-80.7,103.8-188.4,103.8-188.4c-41.4,23.3-82.5,75-101.3,119.7
				C1819.7,1117,1818.8,1141.9,1818.3,1160z"/>
		</g>
		<g>
			<g>
				<path class="st20" d="M1706.5,1123.3c-8-1.8-13.3-7.9-14.5-8.9c0,0-3.4,0.2,0.6,7.5c0.3,0.6,1.1,2.2,1.6,3.3
					c0.2,0.5-0.1,1-0.6,1c-4.6,0.4-9.2-1.5-18.1,0.4c-1.2,0.3-1.6,3.2-1.5,4.4c0.1,2.1-0.1,4.5,2.4,7.7c1.4,1.9,5.4,3.9,14.3,7.5
					c3.4,1.4,13.1,0.3,22.1-2.8l7.3-3.4l-2.2-13.5l-1.8,0.4C1713.1,1127.5,1709.5,1124,1706.5,1123.3z"/>
			</g>
			<g>
				<path class="st7" d="M1887,921.7c0,0,101.8,19.4-29.9,166.7c-21.1,23.6-134.9,54.3-134.9,54.3s-11.5-9.8-5.7-17.8
					c0,0,78.4-56.9,95.6-65.9c7.8-4.1,30.1-90.8,42.7-111.7S1887,921.7,1887,921.7z"/>
			</g>
		</g>
		<g>
			<path class="st20" d="M1690.8,976.6c0,0-3.3-6.4-4-9.7c-0.7-3.4-4.8-13.1-6.6-14.9c-0.7-0.7-3,0.2-3.2,3.2
				c-0.1,1.3,0.5,3.6,1.6,6.4c1.8,4.6,1.5,10.7,2.2,12.8C1682.4,979.6,1690.8,976.6,1690.8,976.6z"/>
		</g>
	</g>
</g>
</svg>
