<?xml version="1.0" encoding="utf-8"?>
<!-- Generator: Adobe Illustrator 26.0.1, SVG Export Plug-In . SVG Version: 6.00 Build 0)  -->
<svg version="1.1" id="katman_1" xmlns="http://www.w3.org/2000/svg" xmlns:xlink="http://www.w3.org/1999/xlink" x="0px" y="0px"
	 viewBox="0 0 552.8 120.2" style="enable-background:new 0 0 552.8 120.2;" xml:space="preserve">
<style type="text/css">
	.st0{fill:#80217D;}
	.st1{fill-rule:evenodd;clip-rule:evenodd;fill:#80217D;}
	.st2{fill-rule:evenodd;clip-rule:evenodd;fill:url(#SVGID_1_);}
	.st3{fill:#1F5EA7;}
</style>
<g>
	<g>
		<path class="st0" d="M0,69.4c0-2.3,2.1-4.1,4.7-4.1h24.2c2.6,0,4.7,1.9,4.7,4.1c0,2.3-2.1,4.1-4.7,4.1H4.7C2.1,73.5,0,71.7,0,69.4
			z"/>
		<path class="st1" d="M20.2,86.7c0-2.3,2.1-4.1,4.7-4.1h12.2c2.6,0,4.7,1.9,4.7,4.1c0,2.3-2.1,4.1-4.7,4.1H24.9
			C22.3,90.9,20.2,89,20.2,86.7z"/>
		<linearGradient id="SVGID_1_" gradientUnits="userSpaceOnUse" x1="103.9863" y1="96.3181" x2="103.9863" y2="0">
			<stop  offset="0" style="stop-color:#1B97C5"/>
			<stop  offset="0.4944" style="stop-color:#22529E"/>
			<stop  offset="1" style="stop-color:#AB3366"/>
		</linearGradient>
		<path class="st2" d="M178.9,22.3c-3-4.2-8-5.9-13.7-5.9h-46.4c-0.3,0-0.6,0-0.9,0l-1-1.8l-0.8-1.3l0,0C110.8,5.3,101.6,0,91.2,0
			C74.7,0,61.3,13.4,61.3,29.9c0,9.7,4.6,18.3,11.8,23.8c0.9-1.7,2.2-4,3.6-6.7c-4.9-4.1-7.9-10.2-7.9-17.1
			c0-12.4,10-22.4,22.4-22.4c6.2,0,11.9,2.6,15.9,6.7l1.3,1.4l1.2,1.7l0.1,0c-10,1.6-17.3,6-20.8,11.8c-2.6,4.2-7.2,12.8-10.8,19.3
			l0,0L76.7,47l-3.6,6.7l1.5,1.1l0,0c-0.8,1.5-1.3,2.5-1.3,2.5C54.8,44.5,59.2,25.9,59.2,25.9H40.3c-12,0-15.3,11.6-12.4,17.4
			c2.9,5.8,11.9,22.7,19.8,36.1C55.5,92.8,65.8,96.3,74,96.3h56.7c14,0,22.7-11.3,25.7-16.6c3-5.3,18.5-35.4,22-42
			C181.8,31.2,181.9,26.6,178.9,22.3z M171.3,35c-2,4-18.1,34.7-22.1,41.8c-4,7.1-12,12.7-23.2,12.7H75c-6.6,0-7.7-4-4.8-9.6
			S89.7,42.6,94,35.5c4.4-7.1,11.9-11.6,19.9-11.6c3.7,0,51.8,0.1,51.8,0.1c4.9,0,6.5,1.1,7.5,2.9C174.1,28.8,173.3,31,171.3,35z"/>
	</g>
	<g>
		<path class="st3" d="M204.2,16.5h13.4c0.5,0,1,0.4,1,1v13.7c0,0.5-0.4,1-1,1h-13.4c-0.5,0-1-0.4-1-1V17.5
			C203.3,17,203.7,16.5,204.2,16.5z M204.2,37.2h13.4c0.5,0,1,0.4,1,1v57.2c0,0.5-0.4,1-1,1h-13.4c-0.5,0-1-0.4-1-1V38.2
			C203.3,37.6,203.7,37.2,204.2,37.2z"/>
		<path class="st3" d="M277.2,77.5c0,6.3-2.1,11.1-6.1,14.2c-4.1,3.2-9.8,4.8-17.1,4.8c-10,0-18.6-0.9-26-2.6
			c-0.5-0.1-0.8-0.7-0.7-1.2l2.4-10.3c0.1-0.5,0.6-0.8,1.2-0.7c7.1,1.7,14.2,2.5,21.4,2.5c3.4,0,5.9-0.6,7.4-1.8
			c1.5-1.2,2.3-2.5,2.3-3.8c0-1.4-0.8-2.6-2.3-3.4c-1.5-0.9-4.2-1.7-7.9-2.4c-7.6-1.3-13.4-3.4-17.4-6.3c-4.1-3-6.1-7.5-6.1-13.7
			c0-11.8,7.8-17.7,23.4-17.7c8.6,0,16.6,0.9,23.9,2.6c0.5,0.1,0.8,0.7,0.7,1.2l-2.3,10.4c-0.1,0.5-0.7,0.9-1.2,0.7
			c-7.5-1.7-14.3-2.6-20.3-2.6c-3.2,0-5.4,0.5-6.8,1.5c-1.4,1-2.1,2.2-2.1,3.4c0,1.4,0.7,2.6,2,3.5c1.3,0.9,3.9,1.8,7.6,2.5
			c3,0.6,5.3,1.2,7,1.6c1.7,0.4,3.7,1.2,6.3,2.2c2.5,1.1,4.5,2.2,5.8,3.4c1.3,1.2,2.5,2.8,3.5,4.9C276.7,72.6,277.2,74.9,277.2,77.5
			z"/>
		<path class="st3" d="M319.7,84.7c-0.1-0.6-0.6-0.9-1.2-0.9c-1.5,0.3-3,0.4-4.4,0.4c-3.1,0-5.3-0.7-6.6-2.1c-1.3-1.4-2-3.5-2-6.4
			V48.2c0-0.5,0.4-1,1-1h12.8c0.5,0,1-0.4,1-1v-9c0-0.5-0.4-1-1-1h-12.8c-0.5,0-1-0.4-1-1V20.7c0-0.5-0.4-1-1-1h-13.4
			c-0.5,0-1,0.4-1,1v15.6h0h-6.9c-0.5,0-1,0.4-1,1v9c0,0.5,0.4,1,1,1h6c0.5,0,1,0.4,1,1v30.2c0,6.3,1.4,10.9,4.3,13.8
			c2.9,2.9,7.7,4.3,14.4,4.3c4.3,0,8-0.3,11.2-0.9c0.5-0.1,0.8-0.6,0.8-1.1L319.7,84.7z"/>
		<path class="st3" d="M330.8,57.6h29.1c0.5,0,1,0.4,1,1v10.8c0,0.5-0.4,1-1,1h-29.1c-0.5,0-1-0.4-1-1V58.6
			C329.8,58.1,330.2,57.6,330.8,57.6z"/>
		<path class="st0" d="M386.2,35.8c0.5,0,1,0.4,1,1l0,5.4h0.2c1.9-2.1,4.4-3.8,7.4-5.1c3-1.3,6.1-2,9.3-2
			c14.3,0,21.5,10.2,21.5,30.7c0,9.2-1.8,16.7-5.4,22.3c-3.6,5.6-9.3,8.5-17.1,8.5c-6.5,0-11.7-2.2-15.7-6.6h-0.2V118
			c0,0.5-0.4,1-1,1h-13.4c-0.5,0-1-0.4-1-1l0-81.3c0-0.5,0.4-1,1-1H386.2z M409.5,65.8c0-12-3.9-18-11.6-18c-3.7,0-7.1,1.1-10.2,3.4
			c-0.3,0.2-0.4,0.5-0.4,0.8v27.6c0,0.3,0.1,0.6,0.4,0.8c3,2.3,6.4,3.5,10.3,3.5C405.6,83.9,409.5,77.9,409.5,65.8z"/>
		<path class="st0" d="M472,96.5c-0.6,0-1-0.5-1-1l0.1-6h-0.2c-1.8,2.1-4.3,3.8-7.3,5.1c-3.1,1.3-6.2,2-9.3,2
			c-14.3,0-21.5-10.2-21.6-30.7c0-9.1,1.8-16.6,5.3-22.2c3.6-5.7,9.3-8.5,17.1-8.5c6.5,0,12.1,2.2,16.7,6.6h0.2l2.5-5.3
			c0.2-0.3,0.5-0.6,0.9-0.6h10.1c0.5,0,1,0.4,1,1l-0.1,58.8c0,0.5-0.4,1-1,1H472z M449,65.8c0,12.1,3.8,18.1,11.5,18.1
			c3.8,0,7.2-1.2,10.2-3.5c0.2-0.2,0.4-0.5,0.4-0.8l0-27.6c0-0.3-0.1-0.6-0.4-0.8c-3.1-2.2-6.5-3.4-10.2-3.4
			C452.8,47.8,448.9,53.8,449,65.8z"/>
		<path class="st0" d="M514.3,95.8l-21.5-58.8c-0.2-0.6,0.2-1.3,0.9-1.3h15.1c0.4,0,0.8,0.3,0.9,0.7l13.4,42.9h0.2l13.1-42.9
			c0.1-0.4,0.5-0.7,0.9-0.7h14.3c0.7,0,1.1,0.7,0.9,1.3L532,97.5c-2.8,8.4-6.2,14.2-10.2,17.6c-4.1,3.4-9.4,5.1-16.1,5.1
			c-3.6,0-6.9-0.3-9.8-0.9c-0.5-0.1-0.8-0.6-0.8-1.1l1.2-10.7c0.1-0.6,0.6-0.9,1.2-0.9c1.6,0.3,3.1,0.4,4.6,0.4c2.8,0,5.2-1,7.4-3
			c2.1-1.9,3.7-4.4,4.9-7.6C514.4,96.3,514.4,96.1,514.3,95.8z"/>
	</g>
</g>
</svg>
