<?xml version="1.0" encoding="utf-8"?>
<!-- Generator: Adobe Illustrator 25.4.1, SVG Export Plug-In . SVG Version: 6.00 Build 0)  -->
<svg version="1.1" id="katman_1" xmlns="http://www.w3.org/2000/svg" xmlns:xlink="http://www.w3.org/1999/xlink" x="0px" y="0px"
	 viewBox="0 0 62 62" style="enable-background:new 0 0 62 62;" xml:space="preserve">
<style type="text/css">
	.st0{fill:#E2E5E7;}
	.st1{fill:#B0B7BD;}
	.st2{fill:#CAD1D8;}
	.st3{fill:#F7B84E;}
	.st4{fill:#FAFAFA;}
</style>
<path class="st0" d="M15.5,0c-2.1,0-3.9,1.7-3.9,3.9v54.2c0,2.1,1.7,3.9,3.9,3.9h38.8c2.1,0,3.9-1.7,3.9-3.9V15.5L42.6,0H15.5z"/>
<path class="st1" d="M46.5,15.5h11.6L42.6,0v11.6C42.6,13.8,44.4,15.5,46.5,15.5z"/>
<path class="st2" d="M58.1,27.1L46.5,15.5h11.6V27.1z"/>
<path class="st3" d="M50.4,50.4c0,1.1-0.9,1.9-1.9,1.9H5.8c-1.1,0-1.9-0.9-1.9-1.9V31c0-1.1,0.9-1.9,1.9-1.9h42.6
	c1.1,0,1.9,0.9,1.9,1.9V50.4z"/>
<path class="st2" d="M48.4,52.3H11.6v1.9h36.8c1.1,0,1.9-0.9,1.9-1.9v-1.9C50.4,51.4,49.5,52.3,48.4,52.3z"/>
<g>
	<path class="st4" d="M21.5,40.4c-0.3,0.5-0.7,0.9-1.3,1.2c-0.6,0.3-1.3,0.5-2.1,0.5h-1.6v3.7H14V35.4h4.1c0.8,0,1.5,0.1,2.1,0.4
		c0.6,0.3,1,0.7,1.3,1.2c0.3,0.5,0.4,1.1,0.4,1.7C21.9,39.3,21.8,39.9,21.5,40.4z M19,39.7c0.2-0.2,0.4-0.5,0.4-1s-0.1-0.7-0.4-1
		c-0.2-0.2-0.6-0.3-1.1-0.3h-1.4V40h1.4C18.4,40,18.8,39.9,19,39.7z"/>
	<path class="st4" d="M32.6,45.8H30l-4.2-6.4v6.4h-2.5V35.4h2.5l4.2,6.5v-6.5h2.5V45.8z"/>
	<path class="st4" d="M41.4,38.7c-0.2-0.3-0.5-0.6-0.8-0.8c-0.4-0.2-0.8-0.3-1.2-0.3c-0.8,0-1.5,0.3-2,0.8s-0.7,1.3-0.7,2.2
		c0,1,0.3,1.7,0.8,2.3s1.2,0.8,2.1,0.8c0.6,0,1.2-0.2,1.6-0.5c0.4-0.3,0.7-0.8,0.9-1.4h-3.2v-1.9h5.5v2.4c-0.2,0.6-0.5,1.2-1,1.8
		s-1,1-1.7,1.3c-0.7,0.3-1.5,0.5-2.3,0.5c-1,0-1.9-0.2-2.8-0.7c-0.8-0.5-1.4-1.1-1.9-1.9c-0.5-0.8-0.7-1.7-0.7-2.8
		c0-1,0.2-1.9,0.7-2.8c0.5-0.8,1.1-1.4,1.9-1.9c0.8-0.5,1.7-0.7,2.7-0.7c1.2,0,2.3,0.3,3.2,0.9c0.9,0.6,1.4,1.4,1.7,2.5H41.4z"/>
</g>
</svg>
